<svg width="0" height="0" class="hidden">
  <symbol  xmlns="http://www.w3.org/2000/svg" viewBox="0 0 25 25" id="bell">
    <path d="M12.5 25C14.2246 25 15.6236 23.6011 15.6236 21.875H9.3765C9.3765 23.6011 10.7754 25 12.5 25ZM23.0171 17.6899C22.0738 16.6763 20.3086 15.1514 20.3086 10.1562C20.3086 6.3623 17.6485 3.3252 14.0616 2.58008V1.5625C14.0616 0.699707 13.3623 0 12.5 0C11.6377 0 10.9385 0.699707 10.9385 1.5625V2.58008C7.3516 3.3252 4.69144 6.3623 4.69144 10.1562C4.69144 15.1514 2.9263 16.6763 1.98294 17.6899C1.68998 18.0049 1.56009 18.3813 1.56253 18.75C1.5679 19.5508 2.19632 20.3125 3.12992 20.3125H21.8702C22.8037 20.3125 23.4327 19.5508 23.4375 18.75C23.44 18.3813 23.3101 18.0044 23.0171 17.6899Z" ></path>
  </symbol>
  <symbol  xmlns="http://www.w3.org/2000/svg" viewBox="0 0 25 25" id="calendar-alt">
    <path d="M1.5625 22.6562C1.5625 23.9502 2.6123 25 3.90625 25H21.0938C22.3877 25 23.4375 23.9502 23.4375 22.6562V9.375H1.5625V22.6562ZM17.1875 13.0859C17.1875 12.7637 17.4512 12.5 17.7734 12.5H19.7266C20.0488 12.5 20.3125 12.7637 20.3125 13.0859V15.0391C20.3125 15.3613 20.0488 15.625 19.7266 15.625H17.7734C17.4512 15.625 17.1875 15.3613 17.1875 15.0391V13.0859ZM17.1875 19.3359C17.1875 19.0137 17.4512 18.75 17.7734 18.75H19.7266C20.0488 18.75 20.3125 19.0137 20.3125 19.3359V21.2891C20.3125 21.6113 20.0488 21.875 19.7266 21.875H17.7734C17.4512 21.875 17.1875 21.6113 17.1875 21.2891V19.3359ZM10.9375 13.0859C10.9375 12.7637 11.2012 12.5 11.5234 12.5H13.4766C13.7988 12.5 14.0625 12.7637 14.0625 13.0859V15.0391C14.0625 15.3613 13.7988 15.625 13.4766 15.625H11.5234C11.2012 15.625 10.9375 15.3613 10.9375 15.0391V13.0859ZM10.9375 19.3359C10.9375 19.0137 11.2012 18.75 11.5234 18.75H13.4766C13.7988 18.75 14.0625 19.0137 14.0625 19.3359V21.2891C14.0625 21.6113 13.7988 21.875 13.4766 21.875H11.5234C11.2012 21.875 10.9375 21.6113 10.9375 21.2891V19.3359ZM4.6875 13.0859C4.6875 12.7637 4.95117 12.5 5.27344 12.5H7.22656C7.54883 12.5 7.8125 12.7637 7.8125 13.0859V15.0391C7.8125 15.3613 7.54883 15.625 7.22656 15.625H5.27344C4.95117 15.625 4.6875 15.3613 4.6875 15.0391V13.0859ZM4.6875 19.3359C4.6875 19.0137 4.95117 18.75 5.27344 18.75H7.22656C7.54883 18.75 7.8125 19.0137 7.8125 19.3359V21.2891C7.8125 21.6113 7.54883 21.875 7.22656 21.875H5.27344C4.95117 21.875 4.6875 21.6113 4.6875 21.2891V19.3359ZM21.0938 3.125H18.75V0.78125C18.75 0.351562 18.3984 0 17.9688 0H16.4062C15.9766 0 15.625 0.351562 15.625 0.78125V3.125H9.375V0.78125C9.375 0.351562 9.02344 0 8.59375 0H7.03125C6.60156 0 6.25 0.351562 6.25 0.78125V3.125H3.90625C2.6123 3.125 1.5625 4.1748 1.5625 5.46875V7.8125H23.4375V5.46875C23.4375 4.1748 22.3877 3.125 21.0938 3.125Z" ></path>
  </symbol>
  <symbol  xmlns="http://www.w3.org/2000/svg" viewBox="0 0 25 25" id="cog">
    <g clip-path="url(#clip0_2_61)">
      <path d="M23.7989 15.415L21.7188 14.2139C21.9288 13.081 21.9288 11.9189 21.7188 10.7861L23.7989 9.58495C24.0381 9.44823 24.1456 9.16502 24.0674 8.90135C23.5254 7.16307 22.6026 5.59081 21.3965 4.28221C21.211 4.08202 20.9083 4.03319 20.6739 4.16991L18.5938 5.37108C17.7198 4.61913 16.7139 4.03807 15.6251 3.65721V1.25975C15.6251 0.986313 15.4346 0.747055 15.1661 0.688461C13.3741 0.288071 11.5381 0.307602 9.83404 0.688461C9.56548 0.747055 9.37506 0.986313 9.37506 1.25975V3.66209C8.29107 4.04784 7.28521 4.62889 6.4063 5.37596L4.33111 4.17479C4.09185 4.03807 3.794 4.08202 3.60845 4.28709C2.4024 5.59081 1.47955 7.16307 0.937555 8.90623C0.854547 9.16991 0.966852 9.45311 1.20611 9.58983L3.28619 10.791C3.07623 11.9238 3.07623 13.0859 3.28619 14.2187L1.20611 15.4199C0.966852 15.5566 0.85943 15.8398 0.937555 16.1035C1.47955 17.8418 2.4024 19.414 3.60845 20.7226C3.794 20.9228 4.09673 20.9717 4.33111 20.8349L6.41119 19.6338C7.28521 20.3857 8.29107 20.9668 9.37994 21.3476V23.75C9.37994 24.0234 9.57037 24.2627 9.83892 24.3213C11.6309 24.7217 13.4669 24.7021 15.171 24.3213C15.4395 24.2627 15.6299 24.0234 15.6299 23.75V21.3476C16.7139 20.9619 17.7198 20.3808 18.5987 19.6338L20.6788 20.8349C20.918 20.9717 21.2159 20.9277 21.4014 20.7226C22.6075 19.4189 23.5303 17.8467 24.0723 16.1035C24.1456 15.8349 24.0381 15.5517 23.7989 15.415ZM12.5001 16.4062C10.3467 16.4062 8.5938 14.6533 8.5938 12.5C8.5938 10.3467 10.3467 8.59373 12.5001 8.59373C14.6534 8.59373 16.4063 10.3467 16.4063 12.5C16.4063 14.6533 14.6534 16.4062 12.5001 16.4062Z" ></path>
    </g>
    <defs>
      <clipPath id="clip0_2_61">
        <rect width="25" height="25" ></rect>
      </clipPath>
    </defs>
  </symbol>
  <symbol  xmlns="http://www.w3.org/2000/svg" viewBox="0 0 25 25" id="ellipsis-h">
    <path d="M16.0156 12.5C16.0156 14.4434 14.4434 16.0156 12.5 16.0156C10.5566 16.0156 8.98438 14.4434 8.98438 12.5C8.98438 10.5566 10.5566 8.98438 12.5 8.98438C14.4434 8.98438 16.0156 10.5566 16.0156 12.5ZM21.0938 8.98438C19.1504 8.98438 17.5781 10.5566 17.5781 12.5C17.5781 14.4434 19.1504 16.0156 21.0938 16.0156C23.0371 16.0156 24.6094 14.4434 24.6094 12.5C24.6094 10.5566 23.0371 8.98438 21.0938 8.98438ZM3.90625 8.98438C1.96289 8.98438 0.390625 10.5566 0.390625 12.5C0.390625 14.4434 1.96289 16.0156 3.90625 16.0156C5.84961 16.0156 7.42188 14.4434 7.42188 12.5C7.42188 10.5566 5.84961 8.98438 3.90625 8.98438Z" ></path>
  </symbol>
  <symbol  xmlns="http://www.w3.org/2000/svg" viewBox="0 0 25 25" id="folder-open">
    <path d="M24.8565 14.0665L21.7131 19.4552C21.4685 19.8746 21.1182 20.2225 20.6972 20.4643C20.2763 20.7061 19.7992 20.8333 19.3138 20.8333H1.95421C1.15026 20.8333 0.649349 19.9612 1.05443 19.2668L4.19783 13.8781C4.44246 13.4588 4.79272 13.1108 5.21372 12.869C5.63471 12.6272 6.11173 12.5 6.59722 12.5H23.9568C24.7607 12.5 25.2616 13.3721 24.8565 14.0665ZM6.59722 11.1111H20.8333V9.02777C20.8333 7.87716 19.9006 6.94443 18.75 6.94443H11.8056L9.02778 4.16666H2.08333C0.932726 4.16666 0 5.09938 0 6.24999V18.318L2.99813 13.1783C3.74193 11.9032 5.12105 11.1111 6.59722 11.1111Z" ></path>
  </symbol>
  <symbol  xmlns="http://www.w3.org/2000/svg" viewBox="0 0 25 25" id="plus">
    <path d="M21.875 10.1562H14.8438V3.125C14.8438 2.26221 14.144 1.5625 13.2812 1.5625H11.7188C10.856 1.5625 10.1562 2.26221 10.1562 3.125V10.1562H3.125C2.26221 10.1562 1.5625 10.856 1.5625 11.7188V13.2812C1.5625 14.144 2.26221 14.8438 3.125 14.8438H10.1562V21.875C10.1562 22.7378 10.856 23.4375 11.7188 23.4375H13.2812C14.144 23.4375 14.8438 22.7378 14.8438 21.875V14.8438H21.875C22.7378 14.8438 23.4375 14.144 23.4375 13.2812V11.7188C23.4375 10.856 22.7378 10.1562 21.875 10.1562Z" ></path>
  </symbol>
  <symbol  xmlns="http://www.w3.org/2000/svg" viewBox="0 0 25 25" id="question-circle">
    <g clip-path="url(#clip0_2_59)">
      <path d="M24.6094 12.5C24.6094 19.1893 19.1874 24.6094 12.5 24.6094C5.81265 24.6094 0.390625 19.1893 0.390625 12.5C0.390625 5.8146 5.81265 0.390625 12.5 0.390625C19.1874 0.390625 24.6094 5.8146 24.6094 12.5ZM12.825 4.39453C10.164 4.39453 8.4668 5.51548 7.13408 7.50771C6.96143 7.76582 7.01919 8.11392 7.26665 8.30156L8.96094 9.58623C9.21509 9.77896 9.5772 9.73311 9.77466 9.48262C10.6469 8.37627 11.245 7.73472 12.5727 7.73472C13.5702 7.73472 14.804 8.37671 14.804 9.34399C14.804 10.0752 14.2003 10.4508 13.2154 11.003C12.0668 11.6469 10.5469 12.4483 10.5469 14.4531V14.6484C10.5469 14.972 10.8092 15.2344 11.1328 15.2344H13.8672C14.1908 15.2344 14.4531 14.972 14.4531 14.6484V14.5833C14.4531 13.1936 18.5149 13.1357 18.5149 9.375C18.5149 6.54287 15.5772 4.39453 12.825 4.39453ZM12.5 16.5039C11.2615 16.5039 10.2539 17.5115 10.2539 18.75C10.2539 19.9885 11.2615 20.9961 12.5 20.9961C13.7385 20.9961 14.7461 19.9885 14.7461 18.75C14.7461 17.5115 13.7385 16.5039 12.5 16.5039Z" ></path>
    </g>
    <defs>
      <clipPath id="clip0_2_59">
        <rect width="25" height="25" ></rect>
      </clipPath>
    </defs>
  </symbol>
  <symbol  xmlns="http://www.w3.org/2000/svg" viewBox="0 0 25 25" id="search">
    <g clip-path="url(#clip0_2_67)">
      <path d="M24.6582 21.6162L19.79 16.748C19.5703 16.5283 19.2725 16.4062 18.96 16.4062H18.1641C19.5117 14.6826 20.3125 12.5146 20.3125 10.1562C20.3125 4.5459 15.7666 0 10.1562 0C4.5459 0 0 4.5459 0 10.1562C0 15.7666 4.5459 20.3125 10.1562 20.3125C12.5146 20.3125 14.6826 19.5117 16.4062 18.1641V18.96C16.4062 19.2725 16.5283 19.5703 16.748 19.79L21.6162 24.6582C22.0752 25.1172 22.8174 25.1172 23.2715 24.6582L24.6533 23.2764C25.1123 22.8174 25.1123 22.0752 24.6582 21.6162ZM10.1562 16.4062C6.7041 16.4062 3.90625 13.6133 3.90625 10.1562C3.90625 6.7041 6.69922 3.90625 10.1562 3.90625C13.6084 3.90625 16.4062 6.69922 16.4062 10.1562C16.4062 13.6084 13.6133 16.4062 10.1562 16.4062Z" ></path>
    </g>
    <defs>
      <clipPath id="clip0_2_67">
        <rect width="25" height="25" ></rect>
      </clipPath>
    </defs>
  </symbol>
  <symbol  xmlns="http://www.w3.org/2000/svg" viewBox="0 0 25 25" id="star">
    <path d="M11.2544 2.16146L8.42017 7.90798L2.07903 8.83246C0.941874 8.99739 0.486145 10.3993 1.3108 11.2023L5.89847 15.6727L4.8134 21.9878C4.61809 23.1293 5.82035 23.9844 6.82729 23.4505L12.5 20.4687L18.1728 23.4505C19.1797 23.98 20.382 23.1293 20.1867 21.9878L19.1016 15.6727L23.6893 11.2023C24.5139 10.3993 24.0582 8.99739 22.921 8.83246L16.5799 7.90798L13.7457 2.16146C13.2379 1.13715 11.7665 1.12413 11.2544 2.16146Z" ></path>
  </symbol>
  <symbol  xmlns="http://www.w3.org/2000/svg" viewBox="0 0 25 25" id="trash">
    <g clip-path="url(#clip0_2_49)">
      <path d="M22.6562 1.56251H16.7969L16.3379 0.649423C16.2407 0.454215 16.0909 0.29001 15.9054 0.175281C15.72 0.0605526 15.5062 -0.00014785 15.2881 8.5609e-06H9.70703C9.48944 -0.000827891 9.27602 0.0596463 9.09121 0.174503C8.90641 0.289359 8.75769 0.453951 8.66211 0.649423L8.20312 1.56251H2.34375C2.13655 1.56251 1.93784 1.64482 1.79132 1.79133C1.64481 1.93784 1.5625 2.13656 1.5625 2.34376L1.5625 3.90626C1.5625 4.11346 1.64481 4.31217 1.79132 4.45869C1.93784 4.6052 2.13655 4.68751 2.34375 4.68751H22.6562C22.8635 4.68751 23.0622 4.6052 23.2087 4.45869C23.3552 4.31217 23.4375 4.11346 23.4375 3.90626V2.34376C23.4375 2.13656 23.3552 1.93784 23.2087 1.79133C23.0622 1.64482 22.8635 1.56251 22.6562 1.56251ZM4.16016 22.8027C4.19742 23.3978 4.46004 23.9562 4.89456 24.3644C5.32908 24.7727 5.90283 24.9999 6.49902 25H18.501C19.0972 24.9999 19.6709 24.7727 20.1054 24.3644C20.54 23.9562 20.8026 23.3978 20.8398 22.8027L21.875 6.25001H3.125L4.16016 22.8027Z" ></path>
    </g>
    <defs>
      <clipPath id="clip0_2_49">
        <rect width="25" height="25" ></rect>
      </clipPath>
    </defs>
  </symbol>
  <symbol  xmlns="http://www.w3.org/2000/svg" viewBox="0 0 25 25" id="user-alt">
    <g clip-path="url(#clip0_2_47)">
      <path d="M12.5 14.0625C16.3818 14.0625 19.5312 10.9131 19.5312 7.03125C19.5312 3.14941 16.3818 0 12.5 0C8.61816 0 5.46875 3.14941 5.46875 7.03125C5.46875 10.9131 8.61816 14.0625 12.5 14.0625ZM18.75 15.625H16.0596C14.9756 16.123 13.7695 16.4062 12.5 16.4062C11.2305 16.4062 10.0293 16.123 8.94043 15.625H6.25C2.79785 15.625 0 18.4229 0 21.875V22.6562C0 23.9502 1.0498 25 2.34375 25H22.6562C23.9502 25 25 23.9502 25 22.6562V21.875C25 18.4229 22.2021 15.625 18.75 15.625Z" ></path>
    </g>
    <defs>
      <clipPath id="clip0_2_47">
        <rect width="25" height="25" ></rect>
      </clipPath>
    </defs>
  </symbol>
</svg>