<svg width="38" height="34" viewBox="0 0 38 34" fill="none" xmlns="http://www.w3.org/2000/svg">
<g clip-path="url(#clip0_2_85)">
<path d="M36.6097 34H1.39026C0.622471 34 0 33.4792 0 32.8368V27.1632C0 26.5208 0.622471 26 1.39026 26H36.6097C37.3775 26 38 26.5208 38 27.1632V32.8368C37.9999 33.4792 37.3775 34 36.6097 34Z" fill="#FFD155"/>
<path d="M36.6097 26H19V34H36.6097C37.3775 34 38 33.4792 38 32.8368V27.1631C38 26.5208 37.3775 26 36.6097 26Z" fill="#FFC72D"/>
<path d="M38 28.7859H0V3.82279C0 3.055 0.622473 2.43253 1.39027 2.43253H13.341C13.9246 2.43253 14.4461 2.79716 14.6466 3.34527L16.9415 9.6189H36.6098C37.3776 9.6189 38.0001 10.2414 38.0001 11.0092L38 28.7859Z" fill="#FFDA79"/>
<path d="M38 11.0092C38 10.2414 37.3775 9.6189 36.6097 9.6189H19V28.7859H38V11.0092Z" fill="#FFD155"/>
<path d="M25.1509 20.5927H14.6751C13.9073 20.5927 13.2848 19.9703 13.2848 19.2025C13.2848 18.4347 13.9073 17.8122 14.6751 17.8122H25.1509C25.9187 17.8122 26.5411 18.4347 26.5411 19.2025C26.5411 19.9703 25.9187 20.5927 25.1509 20.5927Z" fill="#FFD155"/>
<path d="M25.1509 17.8123H19V20.5927H25.1509C25.9187 20.5927 26.5411 19.9703 26.5411 19.2025C26.5411 18.4348 25.9187 17.8123 25.1509 17.8123Z" fill="#FFC72D"/>
</g>
<defs>
<clipPath id="clip0_2_85">
<rect width="38" height="34" fill="white"/>
</clipPath>
</defs>
</svg>
