<svg width="169" height="42" viewBox="0 0 169 42" fill="none" xmlns="http://www.w3.org/2000/svg">
<rect width="53" height="42" rx="6" fill="#00956B"/>
<g clip-path="url(#clip0_2_78)">
<path d="M24.8165 34.5734L21.5759 33.6331C21.2359 33.5375 21.0447 33.1816 21.1403 32.8416L28.3919 7.86219C28.4875 7.52219 28.8434 7.33094 29.1834 7.42657L32.424 8.36688C32.764 8.4625 32.9553 8.81844 32.8597 9.15844L25.6081 34.1378C25.5072 34.4778 25.1565 34.6744 24.8165 34.5734ZM18.7603 28.6128L21.0712 26.1478C21.3156 25.8875 21.2997 25.4731 21.0287 25.2341L16.2156 21L21.0287 16.7659C21.2997 16.5269 21.3209 16.1125 21.0712 15.8522L18.7603 13.3872C18.5212 13.1322 18.1175 13.1163 17.8572 13.3606L10.2019 20.5325C9.93092 20.7822 9.93092 21.2125 10.2019 21.4622L17.8572 28.6394C18.1175 28.8838 18.5212 28.8731 18.7603 28.6128ZM36.1428 28.6447L43.7981 21.4675C44.069 21.2178 44.069 20.7875 43.7981 20.5378L36.1428 13.3553C35.8878 13.1163 35.484 13.1269 35.2397 13.3819L32.9287 15.8469C32.6844 16.1072 32.7003 16.5216 32.9712 16.7606L37.7844 21L32.9712 25.2341C32.7003 25.4731 32.679 25.8875 32.9287 26.1478L35.2397 28.6128C35.4787 28.8731 35.8825 28.8838 36.1428 28.6447Z" fill="white"/>
</g>
<path d="M65.324 28.448H69.196V31H63.608C62.64 30.0907 61.9067 28.9393 61.408 27.546C60.9093 26.1527 60.66 24.7227 60.66 23.256C60.66 21.7747 60.9387 20.352 61.496 18.988C62.0533 17.624 62.882 16.4947 63.982 15.6H69.196V18.24H65.324C64.928 18.6947 64.5833 19.428 64.29 20.44C64.0113 21.452 63.872 22.42 63.872 23.344C63.872 24.268 64.0113 25.236 64.29 26.248C64.5833 27.26 64.928 27.9933 65.324 28.448ZM80.0633 15.6C81.09 16.436 81.8526 17.558 82.3513 18.966C82.85 20.374 83.0993 21.826 83.0993 23.322C83.0993 24.8033 82.8573 26.2113 82.3733 27.546C81.8893 28.8807 81.1193 30.032 80.0633 31H75.5313C74.4753 30.032 73.7053 28.8807 73.2213 27.546C72.7373 26.2113 72.4953 24.8033 72.4953 23.322C72.4953 21.826 72.7446 20.374 73.2433 18.966C73.742 17.558 74.5046 16.436 75.5313 15.6H80.0633ZM77.0053 28.448H78.5893C78.956 28.0227 79.264 27.3333 79.5133 26.38C79.7773 25.412 79.9093 24.3927 79.9093 23.322C79.9093 22.2513 79.7846 21.2467 79.5353 20.308C79.286 19.3547 78.978 18.6653 78.6113 18.24H77.0053C76.6386 18.6653 76.3233 19.3547 76.0593 20.308C75.81 21.2467 75.6853 22.2513 75.6853 23.322C75.6853 24.3927 75.81 25.412 76.0593 26.38C76.3233 27.3333 76.6386 28.0227 77.0053 28.448ZM90.4471 28.448H92.4271C92.8378 27.9347 93.1605 27.1867 93.3951 26.204C93.6445 25.2213 93.7691 24.246 93.7691 23.278C93.7691 20.9753 93.3365 19.296 92.4711 18.24H90.4471V28.448ZM87.4551 31V15.6H93.8351C95.9178 17.448 96.9591 19.956 96.9591 23.124C96.9591 26.2773 95.9838 28.9027 94.0331 31H87.4551ZM101.31 31V15.6H109.208V18.24H104.324V21.914H108.68V24.466H104.324V28.448H109.296V31H101.31ZM116.125 18.24H112.803V15.6H122.439V18.24H119.117V31H116.125V18.24ZM130.162 28.448H132.01C132.332 28.096 132.56 27.744 132.692 27.392C132.838 27.0253 132.912 26.49 132.912 25.786V15.6H135.926V24.686C135.926 25.434 135.904 26.0207 135.86 26.446C135.83 26.8567 135.742 27.3627 135.596 27.964C135.346 29.0347 134.657 30.0467 133.528 31H128.644C127.514 30.076 126.825 29.064 126.576 27.964C126.356 27.0693 126.246 25.9767 126.246 24.686V15.6H129.26V25.786C129.26 26.49 129.326 27.0253 129.458 27.392C129.604 27.744 129.839 28.096 130.162 28.448ZM140.576 31V15.6H146.846C147.564 15.864 148.202 16.326 148.76 16.986C149.317 17.646 149.596 18.4453 149.596 19.384C149.596 21.0413 149.053 22.2 147.968 22.86V22.948C149.317 23.696 149.992 24.8693 149.992 26.468C149.992 28.3013 149.06 29.812 147.198 31H140.576ZM143.568 21.958H145.746C146.391 21.562 146.714 20.9607 146.714 20.154C146.714 19.3473 146.413 18.7093 145.812 18.24H143.568V21.958ZM143.568 28.448H145.834C146.098 28.2573 146.332 27.9567 146.538 27.546C146.758 27.1353 146.868 26.7247 146.868 26.314C146.868 25.9033 146.78 25.5293 146.604 25.192C146.428 24.8547 146.208 24.6053 145.944 24.444H143.568V28.448ZM154.237 31V15.6H162.135V18.24H157.251V21.914H161.607V24.466H157.251V28.448H162.223V31H154.237Z" fill="white"/>
<defs>
<clipPath id="clip0_2_78">
<rect width="34" height="34" fill="white" transform="translate(10 4)"/>
</clipPath>
</defs>
</svg>
